<?xml version="1.0" encoding="utf-8"?>
<!-- Generator: Adobe Illustrator 24.0.2, SVG Export Plug-In . SVG Version: 6.00 Build 0)  -->
<svg version="1.1" id="Layer_1" xmlns="http://www.w3.org/2000/svg" xmlns:xlink="http://www.w3.org/1999/xlink" x="0px" y="0px"
	 viewBox="0 0 160 160" style="enable-background:new 0 0 160 160;" xml:space="preserve">
<style type="text/css">
	.st0{fill:#0A0082;}
</style>
<path class="st0" d="M111,37.8c-5,0-7,2.2-9.2,6.6l-21.6,45H80l-21.8-45C56,40,54,37.8,49,37.8c-6.6,0-8.8,4.2-8.8,8.2v69.8
	c0,3.8,3,6,6.6,6c3.2,0,6.8-2.2,6.8-6v-52h0.2l19.8,40.4c1.4,2.8,3.2,4.4,6.4,4.4s5-1.6,6.4-4.4l19.8-40.4h0.2v52c0,3.8,3.6,6,6.8,6
	c3.6,0,6.6-2.2,6.6-6V46C119.8,42,117.6,37.8,111,37.8z M111,37.8c-5,0-7,2.2-9.2,6.6l-21.6,45H80l-21.8-45C56,40,54,37.8,49,37.8
	c-6.6,0-8.8,4.2-8.8,8.2v69.8c0,3.8,3,6,6.6,6c3.2,0,6.8-2.2,6.8-6v-52h0.2l19.8,40.4c1.4,2.8,3.2,4.4,6.4,4.4s5-1.6,6.4-4.4
	l19.8-40.4h0.2v52c0,3.8,3.6,6,6.8,6c3.6,0,6.6-2.2,6.6-6V46C119.8,42,117.6,37.8,111,37.8z M111,37.8c-5,0-7,2.2-9.2,6.6l-21.6,45
	H80l-21.8-45C56,40,54,37.8,49,37.8c-6.6,0-8.8,4.2-8.8,8.2v69.8c0,3.8,3,6,6.6,6c3.2,0,6.8-2.2,6.8-6v-52h0.2l19.8,40.4
	c1.4,2.8,3.2,4.4,6.4,4.4s5-1.6,6.4-4.4l19.8-40.4h0.2v52c0,3.8,3.6,6,6.8,6c3.6,0,6.6-2.2,6.6-6V46C119.8,42,117.6,37.8,111,37.8z
	 M111,37.8c-5,0-7,2.2-9.2,6.6l-21.6,45H80l-21.8-45C56,40,54,37.8,49,37.8c-6.6,0-8.8,4.2-8.8,8.2v69.8c0,3.8,3,6,6.6,6
	c3.2,0,6.8-2.2,6.8-6v-52h0.2l19.8,40.4c1.4,2.8,3.2,4.4,6.4,4.4s5-1.6,6.4-4.4l19.8-40.4h0.2v52c0,3.8,3.6,6,6.8,6
	c3.6,0,6.6-2.2,6.6-6V46C119.8,42,117.6,37.8,111,37.8z M111,37.8c-5,0-7,2.2-9.2,6.6l-21.6,45H80l-21.8-45C56,40,54,37.8,49,37.8
	c-6.6,0-8.8,4.2-8.8,8.2v69.8c0,3.8,3,6,6.6,6c3.2,0,6.8-2.2,6.8-6v-52h0.2l19.8,40.4c1.4,2.8,3.2,4.4,6.4,4.4s5-1.6,6.4-4.4
	l19.8-40.4h0.2v52c0,3.8,3.6,6,6.8,6c3.6,0,6.6-2.2,6.6-6V46C119.8,42,117.6,37.8,111,37.8z M111,37.8c-5,0-7,2.2-9.2,6.6l-21.6,45
	H80l-21.8-45C56,40,54,37.8,49,37.8c-6.6,0-8.8,4.2-8.8,8.2v69.8c0,3.8,3,6,6.6,6c3.2,0,6.8-2.2,6.8-6v-52h0.2l19.8,40.4
	c1.4,2.8,3.2,4.4,6.4,4.4s5-1.6,6.4-4.4l19.8-40.4h0.2v52c0,3.8,3.6,6,6.8,6c3.6,0,6.6-2.2,6.6-6V46C119.8,42,117.6,37.8,111,37.8z
	 M111,37.8c-5,0-7,2.2-9.2,6.6l-21.6,45H80l-21.8-45C56,40,54,37.8,49,37.8c-6.6,0-8.8,4.2-8.8,8.2v69.8c0,3.8,3,6,6.6,6
	c3.2,0,6.8-2.2,6.8-6v-52h0.2l19.8,40.4c1.4,2.8,3.2,4.4,6.4,4.4s5-1.6,6.4-4.4l19.8-40.4h0.2v52c0,3.8,3.6,6,6.8,6
	c3.6,0,6.6-2.2,6.6-6V46C119.8,42,117.6,37.8,111,37.8z"/>
<path class="st0" d="M80.2,0C36,0,0,36,0,80.4c0,44,36,79.6,80.2,79.6S160,124.6,160,80.4C160,36,122.8,0,80.2,0z M80.2,149.4
	c-38,0-69.2-31-69.2-69c0-38.2,31.2-69.8,69.2-69.8c37.8,0,68.8,31.8,68.8,69.8C149,118,118,149.4,80.2,149.4z"/>
</svg>
